<?xml version="1.0" encoding="utf-8"?>
<!-- Generator: Adobe Illustrator 26.3.1, SVG Export Plug-In . SVG Version: 6.00 Build 0)  -->
<svg version="1.1" id="圖層_1" xmlns="http://www.w3.org/2000/svg" xmlns:xlink="http://www.w3.org/1999/xlink" x="0px" y="0px"
	 viewBox="0 0 203 55" style="enable-background:new 0 0 203 55;" xml:space="preserve">
<style type="text/css">
	.st0{fill:#231815;}
</style>
<g>
	<path class="st0" d="M146.4,24.6h10.3V24h-10.3v0v-3.3v-0.4h-2.2h-0.1H144h-1.2c0.7,0,1.1,0.4,1.2,0.9c0,0,0,0,0,0.1
		c0,0.2-0.1,2.7-3.9,2.7c-0.3,0-0.5,0-0.7,0h-0.4v0.6h4.3v7c0,1.5,1,3.2,6,3.2c2.4,0,5.8-0.3,7.4-0.8v-1c-1.9,0.7-5.3,1.1-6.6,1.1
		c-3.4,0-3.7-0.9-3.7-2.4v-4V24.6z"/>
	<path class="st0" d="M36.1,25c0-2.6-2.2-4.8-8.4-4.8h-9.6c0.6,0,1.1,0.4,1.1,0.9v4.2v3.1V29v3.8v1c0,0.6-0.5,0.9-1.1,0.9h4.4v-1v-2
		v-2.4c2.2,0.2,3.3,0.2,4.9,0.1l3.4,4.3c0.4,0.6,0.2,0.9-0.4,0.9h4.4l-3.3-4.2l-1.1-1.4c1.7-0.3,2.5-0.6,2.5-0.6
		C35,27.7,36.1,26.5,36.1,25z M32.5,25c0,0.4,0,1.5-1.1,2.4c-0.2,0.2-0.5,0.4-0.9,0.6c-1.8,0.8-5.6,0.9-5.7,0.9
		c-1.1,0-1.4,0-2.4-0.1v-8.1h2.4C33.2,20.7,32.5,24.6,32.5,25z"/>
	<g>
		<path class="st0" d="M121.6,20.2c0.7,0,1.2,0.4,1.2,1v10.6c0,1.7-1.8,2.2-4.7,2.3h-0.2h0c-2.9,0-4.9-0.6-4.9-2.3V22v-0.8v-1h-3.3
			h-1.2c0.7,0,1.2,0.4,1.2,1v2.3v6.9c0,2.6,3.2,4.2,7.8,4.4v0h0.5h0.5v0c4.5-0.2,7.8-1.8,7.8-4.4v-6.9v-2.3v-0.9H121.6z"/>
		<path class="st0" d="M115.8,25.3c0.2-0.2,0.4-0.3,0.6-0.5l4.3-3.6c-0.6,0.7-1,1.8-0.4,3.8c-1-0.2-1.5-0.2-1.5-0.2
			C117.6,24.7,116.6,24.9,115.8,25.3z"/>
	</g>
	<path class="st0" d="M60.2,34.8h4.2L59,24.2l-1.5-3l-0.5-1h-4.1c0,0,1.1,0.1,0.6,1l-3.5,7l-2.3,4.6c-0.1,0.2-0.2,0.4-0.2,0.4
		c-0.1,0.3-0.1,0.6,0.1,0.9c0.1,0.1,0.2,0.3,0.5,0.5c0.1,0.1,0.3,0.1,0.5,0.1c0,0,0.1,0,0.1,0c0,0,0.1,0,0.1,0c0,0,0.1,0,0.1,0
		c0.7-0.1,2.2-0.6,2.2-0.6l0,0c4.5-1.3,6.7-2.7,7.8-3.8l1.7,3.4C61.1,34.4,60.7,34.8,60.2,34.8z M56.8,29.2c-0.5,0.7-2,2.3-6.2,3.7
		c-2.6,0.8-2-0.3-2-0.3L51,28c0.8-0.1,3.2-0.5,4.6-0.4c0,0,0,0,0,0C56.8,27.7,57.5,28.2,56.8,29.2z M54.2,27.5L54.2,27.5L54.2,27.5
		C54.2,27.5,54.2,27.5,54.2,27.5z M51.2,27.5l3.2-6.3l3.1,6C54.9,27,52.1,27.4,51.2,27.5z"/>
	<path class="st0" d="M180.8,34.8h4.2L180,24.2l-1.5-3l-0.5-1h-4.1c0,0,1.1,0.1,0.6,1l-3.5,7l-2.7,4.6c-0.1,0.2-0.2,0.4-0.2,0.4
		c-0.1,0.3-0.1,0.6,0.1,0.9c0.1,0.1,0.2,0.3,0.5,0.5c0.1,0.1,0.3,0.1,0.5,0.1c0,0,0.1,0,0.1,0c0,0,0.1,0,0.1,0c0,0,0.1,0,0.1,0
		c0.7-0.1,2.2-0.6,2.2-0.6l0,0c4.5-1.3,7.1-2.7,8.3-3.8l1.3,3.4C181.7,34.4,181.3,34.8,180.8,34.8z M177.9,29.2
		c-0.5,0.7-2.4,2.3-6.6,3.7c-2.6,0.8-2-0.3-2-0.3L172,28c0.8-0.1,3.2-0.5,4.6-0.4c0,0,0,0,0,0C177.9,27.7,178.5,28.2,177.9,29.2z
		 M175.2,27.5L175.2,27.5L175.2,27.5C175.2,27.5,175.2,27.5,175.2,27.5z M172.3,27.5l3.2-6.3l3.1,6C176,27,173.1,27.4,172.3,27.5z"
		/>
	<path class="st0" d="M87,20.2h-5.1h-4.5c0.6,0,1.1,0.4,1.2,0.9v2.6v4.7V29v2v2.8c0,0.6-0.6,0.9-1.2,0.9h4.5v-1v-3.6v0v-0.7v0
		c2.2,0.2,3.3,0.2,4.9,0.1c0,0,1.4-0.1,3.1-0.3c0,0,0,0,0,0c0.8-0.1,1.4-0.3,1.9-0.4c0,0,0.6-0.2,0.6-0.2c2.1-0.8,3.2-2.1,3.2-3.5
		C95.4,22.4,93.2,20.2,87,20.2z M91.9,25c0,0.4,0,1.5-1.1,2.4c-0.2,0.2-0.5,0.4-0.9,0.6c-1.8,0.8-5.6,0.9-5.7,0.9
		c-1.1,0-1.4,0-2.4-0.1v-8.1h2.4C92.5,20.7,91.9,24.6,91.9,25z"/>
</g>
</svg>
